<?xml version="1.0" encoding="utf-8"?>
<!-- Generator: Adobe Illustrator 25.0.0, SVG Export Plug-In . SVG Version: 6.00 Build 0)  -->
<svg version="1.1" id="Layer_1" xmlns="http://www.w3.org/2000/svg" xmlns:xlink="http://www.w3.org/1999/xlink" x="0px" y="0px"
	 viewBox="0 0 1080 270" style="enable-background:new 0 0 1080 270;" xml:space="preserve">
<style type="text/css">
	.st0{fill:#90CA42;}
	.st1{fill:#FFFFFF;}
	.st2{fill:#8DC83F;}
	.st3{fill:#90CA44;}
	.st4{fill:#538541;}
	.st5{fill:#8FC841;}
	.st6{fill:none;stroke:#000000;stroke-miterlimit:10;}
	.st7{font-family:'Love-Regular';}
	.st8{font-size:126.843px;}
</style>
<g>
	<path class="st0" d="M767.23,141.27c2.51,2.63,6.29,6.14,11.48,9.45c6.95,4.43,13.1,6.38,18.59,8.08
		c6.59,2.04,11.61,2.83,17.37,3.81c8.77,1.48,15.22,1.93,24.51,2.54c7.39,0.49,17.42,1.12,30.78,0.95
		c14.61-0.19,25.62-1.25,28.24-1.51c10.23-1.02,23.38-2.85,38.55-6.35c1.45-3.12,4.18-7.89,9.12-12.22
		c4.89-4.28,9.63-6.1,10.95-6.58c2.48-0.9,6.83-2.44,12.61-1.98c1.7,0.13,7.69,0.77,13.72,5c5.36,3.75,7.9,8.34,9.52,11.34
		c4.79,8.89,4.91,17.29,4.92,21.58c0.01,4.79-0.1,16.38-7.7,27.92c-2.66,4.05-8.8,13.38-20.55,16.82
		c-2.51,0.73-9.02,2.55-16.66,0.24c-8.75-2.65-13.64-9.09-15.47-11.58c-1.89-2.57-3.08-4.97-3.81-6.66
		c-4.62,6.21-12.35,15.04-24.12,22.77c-9.5,6.24-18.49,9.69-25.15,11.66c8,1.12,16.86,2.87,26.34,5.55
		c17.5,4.96,31.95,11.69,43.16,18.01c-19.43-6.28-36.66-9.74-50.29-11.74c-22.84-3.35-40.4-3.32-50.69-3.25
		c-13.22,0.08-28.83,0.25-49.03,3.73c-17.88,3.08-32.49,7.58-42.92,11.34c10.11-6.22,19.29-10.34,26.42-13.09
		c12.38-4.77,22.54-6.91,29.03-8.25c5.88-1.21,10.87-1.97,14.52-2.46c-8.18-2.1-23.86-7.34-38.47-20.94
		c-13.64-12.7-19.35-26.19-20.55-29.11C763.71,166.8,765.78,149.19,767.23,141.27z"/>
	<path class="st1" d="M947.36,163.02c-0.08,3.4-0.41,7.41-1.27,11.85c-0.99,5.09-2.41,9.42-3.81,12.9c-0.12,1.82-0.1,5.24,1.48,9.1
		c0.63,1.54,2.26,4.97,5.82,7.93c1.46,1.21,4.06,3.38,7.83,4.02c5.55,0.94,10.08-2.02,11.85-3.17c8.34-5.45,10.42-15.21,11.32-19.46
		c1.32-6.2,0.71-11.25,0.42-13.43c-0.41-3.14-0.75-5.83-2.33-8.99c-0.91-1.83-4.14-8.3-11.32-10.26c-4.48-1.22-8.23-0.06-9.41,0.32
		C951.12,156.02,948.02,161.73,947.36,163.02z"/>
	<path class="st2" d="M933.74,154.27c-7.93,1.84-17.87,3.79-29.43,5.24c-2.71,0.34-12.59,1.53-25.86,2.06
		c-18.41,0.73-33.02-0.23-40.62-0.87c-23.45-1.98-34.92-4.59-39.43-5.79c-22.93-6.12-26.31-12.25-26.97-15.87
		c-0.08-0.44-0.35-2.06,0.16-4.13c2.85-11.62,24.9-15.35,39.19-17.77c10.08-1.71,17.74-2.02,24.51-2.3
		c16.28-0.67,28.95,0.49,35.22,1.19c0,0,10.65,0.93,23.4,3.89c1.39,0.32,3.62,0.88,6.35,1.98c1.48,0.6,3.58,1.45,5.87,2.94
		c2.01,1.31,3.17,2.06,4.2,3.57c0.98,1.43,1.61,3.18,1.67,4.44c0.21,4.79-9.12,8.71-11.61,9.76c-16.32,6.91-35.23,6.06-41.83,5.71
		c-14.16-0.74-44.15-2.31-45.75-11.53c-0.25-1.45,0.32-2.75,0.32-2.75c0.8-2.4,4.02-3.7,4.02-3.7c4.76-2.38,12.64-3.75,12.64-3.75
		c2.32-0.51,5.52-1.11,9.36-1.48c5.93-0.58,10.37-0.33,15.44-0.05c4.73,0.26,7.87,0.45,12.11,1.38c1.55,0.34,4.24,0.66,7.35,2.12
		c2.29,1.07,4.77,2.24,4.87,3.97c0.12,2.24-3.85,4.08-5.18,4.71c-1.91,0.89-3.56,1.17-6.13,1.59c-1.76,0.28-3.13,0.39-5.87,0.58
		c-2.46,0.18-3.69,0.26-5.46,0.25c-1.06-0.01-0.46-0.04-5.65-0.3c-1.64-0.08-2.47-0.12-3.72-0.33c-1.01-0.17-1.71-0.36-3.05-0.73
		c-3.87-1.06-4.4-1.58-4.65-2.06c-0.09-0.17-0.54-0.93-0.32-1.69c0.37-1.29,2.51-2.16,5.34-1.85c-0.71,0.27-2.03,0.85-2.06,1.64
		c-0.04,1.15,2.66,2.05,3.65,2.38c2.42,0.81,4.03,0.76,10.26,0.69c3.76-0.04,5.35-0.05,7.56-0.79c1.46-0.49,3.61-1.21,3.7-2.49
		c0.09-1.31-2.25-2.44-3.33-2.96c-2.78-1.34-5.32-1.48-6.58-1.53c-6.66-0.29-10.09-0.43-14.79,0.08c-3.53,0.38-6.19,0.89-8.45,2.78
		c-1.87,1.55-1.84,2.69-1.82,2.94c0.09,1.29,1.4,2.23,2.78,2.97c4.73,2.58,10,2.82,11.58,2.9c15.32,0.71,14.7,0.76,15.83,0.71
		c6.86-0.26,10.45-0.33,15.11-1.69c2.62-0.77,13.16-3.85,13.22-8.25c0.06-4.17-9.3-7.46-12.16-8.46c-1.2-0.42-3.93-1.31-13.54-2.54
		c-3.49-0.45-7.16-0.93-12.16-1.27c-12.2-0.82-21.59-0.08-28.88,0.53c-5.94,0.49-9.9,1.06-13.39,1.69
		c-4.06,0.74-6.26,1.13-8.82,1.96c-3.21,1.03-16.29,5.22-16.71,12.43c-0.29,5.01,5.77,9.38,7.72,10.79
		c2.37,1.71,4.65,2.69,10.79,4.44c11.99,3.43,21.44,4.86,23.59,5.18c3.53,0.52,8.22,1.14,14.49,1.69c5.62,0.5,17.07,1.35,32.15,1.16
		c9.26-0.12,21.08-0.3,36.47-2.43c10.16-1.41,18.67-3.22,24.99-4.76C934.85,153.05,934.3,153.66,933.74,154.27z"/>
	<path class="st2" d="M828.79,151.09c-4.59-0.36-11.46-1.22-19.52-3.57c-7.6-2.22-18.23-5.31-18.33-9.36
		c-0.13-5.25,17.48-9.44,19.2-9.84c-0.57,0.72-3.59,4.63-2.54,9.12c0.51,2.15,1.77,3.69,2.49,4.56c1.64,1.99,3.47,3.12,5.28,4.08
		C820.21,148.66,825.19,150.19,828.79,151.09z"/>
	<path class="st3" d="M764.06,129.81c-4.33-4.95-11.67-14.69-15.44-28.98c-4.77-18.07-1.12-33.12,0.85-39.56
		c-0.31,8.44,0.29,22.17,6.13,37.66c4.37,11.57,10.2,20.24,14.81,26.02c2.6-1.77,7.58-5.7,10.37-12.48
		c3.38-8.22,1.53-15.8,0.42-20.1c-0.52-2-1.5-5.2-14.17-25.39c-4.8-7.64-5.56-8.63-7.19-11.85c-3.91-7.72-5.9-14.66-6.98-19.46
		c-3.27,4.32-7.59,10.64-11.64,18.83c-4.87,9.87-9.37,18.97-9.52,31.31c-0.06,4.83-0.18,14.97,6.13,25.17
		C746.23,124.56,760.14,128.77,764.06,129.81z"/>
	<path class="st4" d="M784.37,88.98c1.05-5.47,1.87-12.28,1.69-20.1c-0.25-10.96-2.35-20.07-4.44-26.65
		c3.3,4.69,8.47,13.36,10.58,25.39c2.79,15.96-1.4,28.73-3.6,34.27c3.08-2.12,10.5-7.83,14.39-18.19
		c2.69-7.17,2.43-13.21,2.33-14.81c-0.64-10.18-5.78-17.13-12.06-25.39c-4.1-5.39-10.92-13.15-21.37-20.52
		c0.47,5.28,0.55,12.28-0.85,20.31c-1.08,6.22-2.78,11.49-4.44,15.65c3.04,3.99,6.2,8.57,9.31,13.75
		C779.37,78.47,782.14,83.97,784.37,88.98z"/>
	<path class="st5" d="M853.33,89.19c-0.92-0.38,1.28-14.95,11.21-28.35c2.83-3.82,3.26-3.46,21.15-20.52
		c11.36-10.83,13.62-13.3,16.08-16.71c7.97-11.07,9.55-21.61,10.37-21.37c0.7,0.21-0.57,7.76-3.17,15.02
		c-2.25,6.28-4.98,10.88-6.56,13.33c-3.13,4.86-6.45,8.63-14.81,16.5c-12.8,12.05-13.12,10.85-17.98,16.08
		C857.37,76.35,854.22,89.56,853.33,89.19z"/>
	<path class="st4" d="M854.6,107.38c-0.04-4.93,0.57-12.69,4.44-20.94c4.52-9.64,11.26-15.17,19.25-21.58
		c12.38-9.93,14.57-7.85,27.08-17.56c7.69-5.96,15.53-12.18,21.58-22.85c4.88-8.61,6.66-16.75,7.4-22
		c2.05,3.69,5.87,11.76,5.5,22.42c-0.32,9.2-3.6,15.76-5.5,19.46c-6.71,13.07-17.18,19.91-21.79,22.85
		c-4.91,3.12-3.99,1.66-24.12,11c-14.1,6.54-16.98,8.39-19.67,10.58C861.17,94.94,856.94,102.29,854.6,107.38z"/>
	<path class="st2" d="M927.37,142.5"/>
	<path class="st2" d="M820.7,126.26"/>
	<path class="st1" d="M765.98,162.38c1.75,6.5,8.39,27.94,29.65,42.85c14.37,10.08,28.75,12.51,36.01,13.22
		c0.31-0.91,0.85-2.2,1.81-3.54c2.79-3.93,6.96-5.28,10.03-6.27c1.13-0.36,4.53-1.39,10.63-1.51c6.83-0.14,8.97,1.01,16.08,1.53
		c1.79,0.13,7.62,0.53,13.83-0.23c4.7-0.57,11.86-2.09,20.21-6.54c-4.08,8.35-8.8,14.26-12.28,18.02
		c-3.19,3.45-6.86,7.36-12.84,10.83c-8.51,4.93-16.26,5.81-18.39,6c-11,1.02-19.53-2.52-23.49-4.49c3.27-0.28,8.18-0.79,14.12-1.73
		c10.92-1.73,16.5-2.65,22.42-5.68c3.44-1.76,8.73-5.08,14.05-11.48c-9.77,6.12-29.16,16.13-53.96,15.17
		c-5.99-0.23-16.42-0.76-28.4-6.27c-5.64-2.59-22.13-11.12-32.09-30.47C767.33,180.05,766.13,169.05,765.98,162.38z"/>
	<path class="st0" d="M785.58,155.63"/>
	<path class="st6" d="M811.42,261.57"/>
	<path class="st4" d="M857.5,221.95"/>
	<path class="st4" d="M808.72,267.76"/>
	<path class="st4" d="M819.11,208.51"/>
</g>
<text transform="matrix(1 0 0 1 56.4234 224.9878)"><tspan x="0" y="0" class="st3 st7 st8">GREEN </tspan><tspan x="465.38" y="0" class="st4 st7 st8">TEA</tspan></text>
</svg>
