<svg id="Layer_1" data-name="Layer 1" xmlns="http://www.w3.org/2000/svg" viewBox="0 0 895.92 259.6"><defs><style>.cls-1{fill:#90ca42;}.cls-2{fill:#fff;}.cls-3{fill:#8dc83f;}.cls-4{fill:#90ca44;}.cls-5{fill:#538541;}.cls-6{fill:#8fc841;}.cls-7{fill:none;stroke:#000;stroke-miterlimit:10;}</style></defs><path class="cls-1" d="M492.8,145.16a61.77,61.77,0,0,0,11.48,9.46c6.94,4.43,13.09,6.38,18.59,8.08a122.14,122.14,0,0,0,17.37,3.8A218,218,0,0,0,564.75,169c7.39.49,17.42,1.13,30.78,1,14.62-.18,25.63-1.24,28.24-1.5a307,307,0,0,0,38.56-6.35,36.94,36.94,0,0,1,9.12-12.22,35.34,35.34,0,0,1,10.95-6.58,28.67,28.67,0,0,1,12.61-2,28.2,28.2,0,0,1,13.72,5,30.46,30.46,0,0,1,9.52,11.35,43.92,43.92,0,0,1,4.92,21.58c0,4.79-.1,16.37-7.69,27.92-2.67,4.05-8.8,13.38-20.55,16.82a28.81,28.81,0,0,1-16.66.24c-8.75-2.65-13.63-9.1-15.47-11.59A33.67,33.67,0,0,1,659,206a94.76,94.76,0,0,1-49.26,34.43A196.58,196.58,0,0,1,679.22,264a309.41,309.41,0,0,0-50.29-11.74A318.37,318.37,0,0,0,578.24,249c-13.22.08-28.83.24-49,3.72a254.26,254.26,0,0,0-42.92,11.35A161.1,161.1,0,0,1,512.71,251a175,175,0,0,1,29-8.25c5.88-1.21,10.87-2,14.51-2.46a89.16,89.16,0,0,1-38.47-20.94,84.93,84.93,0,0,1-20.55-29.12A81.11,81.11,0,0,1,492.8,145.16Z" transform="translate(-72.51 -4.48)"/><path class="cls-2" d="M672.93,165.26a71,71,0,0,1-1.27,11.85,70.18,70.18,0,0,1-3.81,12.9,20.38,20.38,0,0,0,7.3,17,16.45,16.45,0,0,0,7.83,4c5.54.94,10.08-2,11.84-3.17,8.35-5.45,10.42-15.21,11.32-19.46a39.18,39.18,0,0,0,.43-13.44,25.91,25.91,0,0,0-2.33-9c-.91-1.83-4.14-8.3-11.32-10.26a16.48,16.48,0,0,0-9.41.32A18.69,18.69,0,0,0,672.93,165.26Z" transform="translate(-72.51 -4.48)"/><path class="cls-3" d="M659.31,156.51a287.4,287.4,0,0,1-29.43,5.23c-2.71.34-12.59,1.54-25.86,2.07a327.8,327.8,0,0,1-40.62-.88c-23.45-2-34.92-4.58-39.42-5.79-22.93-6.11-26.31-12.25-27-15.86a10.16,10.16,0,0,1,.16-4.13c2.85-11.62,24.9-15.35,39.19-17.77a181.11,181.11,0,0,1,24.51-2.3,232.15,232.15,0,0,1,35.23,1.19,190.45,190.45,0,0,1,23.4,3.89,41.1,41.1,0,0,1,6.34,2,32.42,32.42,0,0,1,5.88,2.94c2,1.31,3.17,2.06,4.2,3.57a9.46,9.46,0,0,1,1.67,4.44c.2,4.79-9.13,8.7-11.61,9.76-16.33,6.91-35.24,6.05-41.84,5.71C570,149.82,540,148.24,538.39,139a5.41,5.41,0,0,1,.31-2.75c.8-2.4,4-3.7,4-3.7,4.77-2.38,12.64-3.76,12.64-3.76a80.78,80.78,0,0,1,9.36-1.48,92.82,92.82,0,0,1,15.45,0,69.84,69.84,0,0,1,12.11,1.37,29.47,29.47,0,0,1,7.35,2.12c2.29,1.07,4.77,2.24,4.87,4,.12,2.23-3.85,4.08-5.19,4.7a21.49,21.49,0,0,1-6.13,1.59c-1.76.28-3.13.39-5.87.58-2.46.18-3.69.26-5.46.25-1.07,0-.46,0-5.65-.3a29.69,29.69,0,0,1-3.71-.33,27.77,27.77,0,0,1-3.06-.73c-3.87-1.06-4.4-1.58-4.65-2.06a2.34,2.34,0,0,1-.32-1.69c.37-1.3,2.51-2.17,5.34-1.86-.71.27-2,.85-2.06,1.64,0,1.15,2.66,2.05,3.65,2.38,2.42.81,4,.76,10.26.69,3.76,0,5.34-.05,7.56-.79,1.46-.49,3.61-1.21,3.7-2.49s-2.24-2.43-3.33-3a16.21,16.21,0,0,0-6.58-1.53c-6.67-.3-10.1-.43-14.8.08-3.53.38-6.18.89-8.45,2.77-1.87,1.56-1.84,2.69-1.82,2.94.08,1.28,1.4,2.22,2.78,3a27.42,27.42,0,0,0,11.58,2.9c15.32.71,14.7.75,15.82.71,6.86-.25,10.45-.33,15.12-1.69,2.61-.77,13.15-3.85,13.22-8.25.06-4.17-9.3-7.46-12.17-8.46-1.2-.43-3.93-1.31-13.54-2.54-3.48-.45-7.16-.93-12.16-1.27a180.21,180.21,0,0,0-28.87.53,134.13,134.13,0,0,0-13.4,1.69,65.33,65.33,0,0,0-8.82,2c-3.21,1-16.29,5.22-16.71,12.43-.29,5,5.77,9.38,7.72,10.79,2.38,1.7,4.66,2.68,10.79,4.44A189,189,0,0,0,552.88,159c3.53.53,8.21,1.14,14.49,1.69a321,321,0,0,0,32.15,1.17A274.6,274.6,0,0,0,636,159.44a249.09,249.09,0,0,0,25-4.76Z" transform="translate(-72.51 -4.48)"/><path class="cls-3" d="M554.36,153.34a97.43,97.43,0,0,1-19.52-3.57c-7.59-2.22-18.22-5.32-18.32-9.37-.13-5.24,17.48-9.43,19.2-9.83-.58.72-3.6,4.63-2.54,9.12a11.19,11.19,0,0,0,2.49,4.57,16.27,16.27,0,0,0,5.28,4.08A60.69,60.69,0,0,0,554.36,153.34Z" transform="translate(-72.51 -4.48)"/><path class="cls-4" d="M489.63,132.05A71.61,71.61,0,0,1,475,63.51,96.14,96.14,0,0,0,496,127.18a28.17,28.17,0,0,0,10.37-12.48c3.37-8.22,1.53-15.8.42-20.09-.51-2-1.5-5.2-14.17-25.39-4.8-7.64-5.56-8.63-7.19-11.85a84,84,0,0,1-7-19.46,117.57,117.57,0,0,0-11.63,18.83c-4.87,9.87-9.37,19-9.52,31.31-.06,4.83-.18,15,6.13,25.17C471.8,126.8,485.71,131,489.63,132.05Z" transform="translate(-72.51 -4.48)"/><path class="cls-5" d="M509.93,91.22a94.71,94.71,0,0,0-2.75-46.75,62.77,62.77,0,0,1,10.58,25.38,63.54,63.54,0,0,1-3.59,34.27,38.83,38.83,0,0,0,14.38-18.19,36.56,36.56,0,0,0,2.33-14.81c-.64-10.18-5.78-17.13-12.06-25.38a96.86,96.86,0,0,0-21.37-20.52,77.82,77.82,0,0,1-5.29,36,150.54,150.54,0,0,1,17.77,30Z" transform="translate(-72.51 -4.48)"/><path class="cls-6" d="M578.9,91.43c-.92-.38,1.28-15,11.21-28.35,2.83-3.81,3.27-3.46,21.15-20.51,11.36-10.83,13.62-13.3,16.08-16.72,8-11.06,9.55-21.61,10.37-21.36s-.57,7.75-3.18,15A65.8,65.8,0,0,1,628,32.83c-3.13,4.87-6.45,8.63-14.81,16.5-12.81,12.06-13.12,10.85-18,16.08C582.94,78.59,579.79,91.8,578.9,91.43Z" transform="translate(-72.51 -4.48)"/><path class="cls-5" d="M580.17,109.62a48.33,48.33,0,0,1,4.44-20.94c4.52-9.64,11.26-15.17,19.25-21.58,12.38-9.92,14.57-7.85,27.08-17.55,7.68-6,15.53-12.18,21.58-22.85a62.38,62.38,0,0,0,7.4-22,43.31,43.31,0,0,1,5.5,22.42,44.33,44.33,0,0,1-5.5,19.46c-6.71,13.07-17.18,19.92-21.79,22.85-4.91,3.13-4,1.66-24.12,11C599.91,87,597,88.82,594.34,91A51.47,51.47,0,0,0,580.17,109.62Z" transform="translate(-72.51 -4.48)"/><path class="cls-3" d="M652.94,144.74" transform="translate(-72.51 -4.48)"/><path class="cls-3" d="M546.27,128.51" transform="translate(-72.51 -4.48)"/><path class="cls-2" d="M491.55,164.62c1.75,6.5,8.39,27.94,29.64,42.86a75.68,75.68,0,0,0,36,13.22,14.1,14.1,0,0,1,1.81-3.54c2.79-3.93,7-5.28,10-6.27a36.09,36.09,0,0,1,10.63-1.51c6.83-.14,9,1,16.09,1.52a73.77,73.77,0,0,0,13.83-.23,57.28,57.28,0,0,0,20.21-6.54,75.05,75.05,0,0,1-12.28,18A52.24,52.24,0,0,1,604.67,233a45.93,45.93,0,0,1-18.38,6,43.81,43.81,0,0,1-23.49-4.5c3.27-.28,8.18-.78,14.12-1.72,10.92-1.73,16.5-2.65,22.42-5.68a44.63,44.63,0,0,0,14-11.48c-9.77,6.12-29.16,16.13-54,15.16a71.49,71.49,0,0,1-28.4-6.26A68.69,68.69,0,0,1,498.94,194,67.66,67.66,0,0,1,491.55,164.62Z" transform="translate(-72.51 -4.48)"/><path class="cls-1" d="M511.14,157.87" transform="translate(-72.51 -4.48)"/><path class="cls-7" d="M537,263.81" transform="translate(-72.51 -4.48)"/><path class="cls-5" d="M583.07,224.19" transform="translate(-72.51 -4.48)"/><path class="cls-5" d="M534.29,270" transform="translate(-72.51 -4.48)"/><path class="cls-5" d="M544.67,210.75" transform="translate(-72.51 -4.48)"/><text x="-72.51" y="-4.48"/><path class="cls-5" d="M141.85,218.7c-8.61,4.49-17.09,7.36-27.44,7.36-24.94,0-41.9-18.58-41.9-43.65s17.08-43.65,42.4-43.65c10.35,0,18.08,1.87,25.07,6l.49,18.08h-7.6l-3.12-18.46,7.73,2.5V154c-6.73-6.24-13.59-9-21.57-9-17.46,0-30.31,13.59-30.31,37.41s11.72,37.29,31.18,37.29c7.11,0,12.35-1.62,19.45-5.12l-5.61,5.87v-7.24c0-9.47-.12-19.2-.37-28.68h12c-.25,9.35-.37,19-.37,28.68Zm-24.57-29.18v-5H149.7v5L136,190.77h-2.49Z" transform="translate(-72.51 -4.48)"/><path class="cls-5" d="M155.94,145.62v-5H173.4v6.86h-1.25Zm18.7,71.71,16.21,1.87v5H155.94v-5l16.21-1.87Zm-6.86-38c0-12.84,0-25.81-.37-38.66h12c-.37,13-.37,25.19-.37,39.91v3.74c0,14.09,0,27.06.37,39.91h-12c.37-12.6.37-25.57.37-38.66Zm5.62.63H189c13.47,0,20-7.24,20-17.34,0-10.47-5.61-16.21-18.58-16.21h-17v-5.74h17.08c19.08,0,30.31,8.11,30.31,22,0,10.6-8.36,20.2-24.7,21.58l.38-1c9,.87,14.46,5,17.83,16.21l6.11,20.7-3.87-2.37,12.85,1.5v5a28.7,28.7,0,0,1-9,1.24c-7.73,0-11.1-2-12.6-7.73l-5.11-20.32c-2.49-10.11-7.11-11.85-17.46-11.85H173.4Z" transform="translate(-72.51 -4.48)"/><path class="cls-5" d="M236.87,145.62v-5h17.46v6.86h-1.25Zm17.46,71.71v6.86H236.87v-5l16.21-1.87Zm-5.61-38c0-12.84,0-25.81-.38-38.66h12c-.37,12.6-.37,25.57-.37,38.66V184c0,14.34,0,27.31.37,40.16h-12c.38-12.6.38-25.57.38-38.66Zm40.15-38.66,5.62,6.24H254.33v-6.24h44.52l.87,22.2h-7Zm-6.36,43.78H254.33v-5.74h28.18ZM302.22,202l-.88,22.2h-47V218H297l-5.61,6.24,3.86-22.2Zm-23.7-22.07,1.87-13.22H286v29.55h-5.61l-1.87-13.84Z" transform="translate(-72.51 -4.48)"/><path class="cls-5" d="M312.19,145.62v-5h17.46v6.86H328.4Zm17.46,71.71v6.86H312.19v-5l16.21-1.87Zm-5.61-38c0-12.84,0-25.81-.38-38.66h12c-.38,12.6-.38,25.57-.38,38.66V184c0,14.34,0,27.31.38,40.16h-12c.38-12.6.38-25.57.38-38.66Zm40.15-38.66,5.62,6.24H329.65v-6.24h44.52l.87,22.2h-7Zm-6.36,43.78H329.65v-5.74h28.18ZM377.54,202l-.87,22.2h-47V218H372.3l-5.61,6.24,3.86-22.2Zm-23.7-22.07,1.87-13.22h5.62v29.55h-5.62l-1.87-13.84Z" transform="translate(-72.51 -4.48)"/><path class="cls-5" d="M386.89,219.2,400,217.33h2.5l14.34,1.87v5H386.89Zm7.86-74.7,7.73,3-15-1.87v-5h18.71L458,211.84v13.22h-4Zm2.74-3.87,6.23,5v78.57h-6.23Zm41.15,0h29.93v5l-12.47,1.87h-2.49l-15-1.87Zm13.1,0H458v84.43l-6.23-6.23Z" transform="translate(-72.51 -4.48)"/><text x="-72.51" y="-4.48"/><path class="cls-4" d="M744.46,146.87l5.61-6.24-4,22.2h-7l1-22.2h68.09l1,22.2h-7l-4-22.2,5.61,6.24Zm30.92,70.46,17.46,1.87v5H755.43v-5l17.46-1.87Zm-6.85-38c0-12.84,0-25.81-.38-38.66h12c-.37,12.6-.37,25.57-.37,38.66v6.24c0,12.84,0,25.81.37,38.66h-12c.38-12.6.38-25.57.38-38.66Z" transform="translate(-72.51 -4.48)"/><path class="cls-4" d="M817.28,145.62v-5h17.46v6.86H833.5Zm17.46,71.71v6.86H817.28v-5l16.22-1.87Zm-5.61-38c0-12.84,0-25.81-.37-38.66h12c-.37,12.6-.37,25.57-.37,38.66V184c0,14.34,0,27.31.37,40.16h-12c.37-12.6.37-25.57.37-38.66Zm40.16-38.66,5.61,6.24H834.74v-6.24h44.52l.88,22.2h-7Zm-6.36,43.78H834.74v-5.74h28.19ZM882.63,202l-.87,22.2h-47V218h42.65l-5.61,6.24,3.87-22.2Zm-23.69-22.07,1.87-13.22h5.61v29.55h-5.61l-1.87-13.84Z" transform="translate(-72.51 -4.48)"/><path class="cls-4" d="M887.62,219.2l12.47-1.87h2.49l13.72,1.87v5H887.62ZM924.78,140h7.48L961,224.19h-11.6l-25.07-74.7h2.87l-25.44,74.7h-5.86Zm-14.59,51.13h33.67l2,5.74H908.19Zm24.57,28.06,15.71-1.87H953l15.47,1.87v5H934.76Z" transform="translate(-72.51 -4.48)"/></svg>